<svg xmlns="http://www.w3.org/2000/svg" viewBox="0 0 24 24" fill="currentColor" fill-rule="evenodd">
  <g transform="translate(.343) scale(.342857)">
    <path d="M32.4733 0.0194092L8.4549 0.035716C3.78514 0.0387735 0 3.82901 0 8.50591V32.4683H7.63652V7.33184H32.4764V0.0194092H32.4733Z"/>
    <path d="M7.46521 37.0116H0.0284424V69.437H7.46521V37.0116Z"/>
    <path d="M32.1665 36.9994H22.0636L10.9038 47.9339C9.48213 49.3281 8.68005 51.2329 8.68005 53.2253C8.68005 55.2178 9.48111 57.1226 10.9038 58.5168L22.0636 69.4513H32.4212L15.8651 52.9695L32.1665 37.0024V36.9994Z"/>
    <path d="M35.5563 8.47011V23.9847C35.5563 28.6646 39.3434 32.4549 44.0203 32.4549H67.4894V25.1394H42.9961V8.77178C42.9961 7.98295 43.6361 7.33885 44.428 7.33885H59.1364C59.9253 7.33885 60.5684 7.97888 60.5684 8.77178C60.5684 9.37308 60.1902 9.91018 59.6277 10.1171L44.6002 15.8478V23.0562L62.3916 16.7171C65.7589 15.5145 68.0082 12.3215 68.0082 8.74121V8.46909C68.0082 3.78914 64.2169 -0.00109863 59.5441 -0.00109863H44.0254C39.3486 -0.00109863 35.5614 3.78914 35.5614 8.46909H35.5583L35.5563 8.47011Z"/>
    <path d="M68 60.977V45.4624C68 40.7855 64.2128 36.9922 59.5359 36.9922H36.0668V44.3077H60.5601V60.6763C60.5601 61.4651 59.9201 62.1092 59.1282 62.1092H44.4208C43.632 62.1092 42.9889 61.4692 42.9889 60.6763C42.9889 60.075 43.367 59.5379 43.9296 59.331L58.957 53.6003V46.3918L41.1656 52.731C37.7984 53.9336 35.5491 57.1266 35.5491 60.7069V60.979C35.5491 65.659 39.3363 69.4492 44.0132 69.4492H59.5318C64.2087 69.4492 67.9959 65.659 67.9959 60.979H67.9989L68 60.977Z"/>
  </g>
</svg>
